# AST/ASF file generated using VICON BodyLanguage
# -----------------------------------------------
:version 1.10
:name VICON
:units
  mass 1.0
  length 0.45
  angle deg
:documentation
   .ast/.asf automatically generated from VICON data using
   VICON BodyBuilder and BodyLanguage model FoxedUp or BRILLIANT.MOD
:root
   order TX TY TZ RX RY RZ
   axis XYZ
   position 0 0 0  
   orientation 0 0 0 
:bonedata
  begin
     id 1 
     name lhipjoint
     direction 0.521452 -0.77106 0.36545 
     length 2.0933 
     axis 0 0 0  XYZ
  end
  begin
     id 2 
     name lfemur
     direction 0.34202 -0.939693 0  
     length 6.83441  
     axis 0 0 20  XYZ
    dof rx ry rz
    limits (-160.0 20.0)
           (-70.0 70.0)
           (-60.0 70.0)
  end
  begin
     id 3 
     name ltibia
     direction 0.34202 -0.939693 0   
     length 7.28749   
     axis 0 0 20   XYZ
    dof rx
    limits (-10.0 170.0)
  end
  begin
     id 4 
     name lfoot
     direction 0.100608 -0.276418 0.955757   
     length 1.52195   
     axis -90 7.62852e-016 20   XYZ
    dof rx rz
    limits (-45.0 90.0)
           (-70.0 20.0)
  end
  begin
     id 5 
     name ltoes
     direction 1.53558e-011 -4.21907e-011 1   
     length 0.770459   
     axis -90 7.62852e-016 20   XYZ
    dof rx
    limits (-90.0 20.0)
  end
  begin
     id 6 
     name rhipjoint
     direction -0.488071 -0.788702 0.373812   
     length 2.04648  
     axis 0 0 0  XYZ 
  end
  begin
     id 7 
     name rfemur
     direction -0.34202 -0.939693 0   
     length 6.92583   
     axis 0 0 -20   XYZ
    dof rx ry rz
    limits (-160.0 20.0)
           (-70.0 70.0)
           (-70.0 60.0)
  end
  begin
     id 8 
     name rtibia
     direction -0.34202 -0.939693 0   
     length 7.41043   
     axis 0 0 -20   XYZ
    dof rx
    limits (-10.0 170.0)
 end
 begin
     id 9 
     name rfoot
     direction -0.0784433 -0.215521 0.973343   
     length 1.67708  
     axis -90 -7.62852e-016 -20   XYZ
    dof rx rz
    limits (-45.0 90.0)
           (-20.0 70.0)
  end
  begin
     id 10 
     name rtoes
     direction -1.53551e-011 -4.21842e-011 1   
     length 0.849787   
     axis -90 -7.62852e-016 -20   XYZ
    dof rx
    limits (-90.0 20.0)
  end
  begin
     id 11 
     name lowerback
     direction -0.0122332 0.997575 -0.0685192   
     length 1.98724   
     axis 0 0 0   XYZ
    dof rx ry rz
    limits (-20.0 45.0)
           (-30.0 30.0)
           (-30.0 30.0)
  end
  begin
     id 12 
     name upperback
     direction 0.0182347 0.999724 -0.0148421   
     length 1.99029   
     axis 0 0 0   XYZ
    dof rx ry rz
    limits (-20.0 45.0)
           (-30.0 30.0)
           (-30.0 30.0)
  end
  begin
     id 13 
     name thorax
     direction 0.0242908 0.99956 0.0170184   
     length 1.99573   
     axis 0 0 0   XYZ
    dof rx ry rz
    limits (-20.0 45.0)
           (-30.0 30.0)
           (-30.0 30.0)
  end
  begin
     id 14 
     name lowerneck
     direction 0.0654488 0.985533 0.156338   
     length 1.4285   
     axis 0 0 0   XYZ
    dof rx ry rz
    limits (-20.0 45.0)
           (-30.0 30.0)
           (-30.0 30.0)
  end
  begin
     id 15 
     name upperneck
     direction -0.02953 0.998556 -0.0448842   
     length 1.44709   
     axis 0 0 0   XYZ
    dof rx ry rz
    limits (-20.0 45.0)
           (-30.0 30.0)
           (-30.0 30.0)
  end
  begin
     id 16
     name head
     direction -0.0155588 0.999386 -0.0314063  
     length 1.44689  
     axis 0 0 0   XYZ
    dof rx ry rz
    limits (-20.0 45.0)
           (-30.0 30.0)
           (-30.0 30.0)
  end
  begin
     id 17 
     name lclavicle
     direction 0.968229 0.236071 -0.0824755  
     length 3.60593  
     axis 0 0 0   XYZ
    dof ry rz
    limits (-20.0 10.0)
           (0.0 20.0)
  end
  begin
     id 18 
     name lhumerus
     direction 1 -4.48968e-011 7.8138e-029   
     length 5.06035   
     axis 180 -30 -90   XYZ
    dof rx ry rz
    limits (-60.0 90.0)
           (-90.0 90.0)
           (-90.0 90.0)
  end
  begin
     id 19
     name lradius
     direction 1 -4.48967e-011 9.02887e-028   
     length 3.1478   
     axis 180 -30 -90   XYZ
    dof rx
    limits (-10.0 170.0)
  end
  begin
     id 20
     name lwrist
     direction 1 -4.48961e-011 7.20928e-028   
     length 1.5739   
     axis -5.52449e-016 90 90   XYZ
    dof ry
    limits (-180.0 0.0)
 end
  begin
     id 21 
     name lhand
     direction 1 -4.48972e-011 1.44186e-027   
     length 0.606747   
     axis -9.20027e-016 90 90   XYZ
    dof rx rz
    limits (-90.0 90.0)
           (-45.0 45.0)
  end
  begin
     id 22 
     name lfingers
     direction 1 -4.48943e-011 2.88371e-027   
     length 0.489175   
     axis -1.84005e-015 90 90   XYZ
    dof rx
    limits (0.0 90.0)
  end
  begin
     id 23
     name lthumb
     direction 0.707107 -6.34917e-011 0.707107   
     length 0.70236   
     axis -90 45 2.85299e-015   XYZ
    dof rx rz
    limits (-45.0 45.0)
           (-45.0 45.0)
  end
  begin
     id 24 
     name rclavicle
     direction -0.978165 0.207816 0.0022268   
     length 3.35425  
     axis 0 0 0   XYZ 
    dof ry rz
    limits (-10.0 20.0)
           (-20.0 0.0)
  end
  begin
     id 25 
     name rhumerus
     direction -1 -4.48964e-011 -4.02159e-027  
     length 5.12273   
     axis 180 30 90   XYZ
    dof rx ry rz
    limits (-90.0 60.0)
           (-90.0 90.0)
           (-90.0 90.0)
  end
  begin
     id 26 
     name rradius
     direction -1 -4.48966e-011 1.62746e-027   
     length 3.422   
     axis 180 30 90   XYZ
    dof rx
    limits (-10.0 170.0)
  end
  begin
     id 27 
     name rwrist
     direction -1 -4.4896e-011 7.20928e-028   
     length 1.711   
     axis -5.52449e-016 -90 -90   XYZ
    dof ry
    limits (-180.0 0.0)
  end
  begin
     id 28
     name rhand
     direction -1 -4.48979e-011 1.44186e-027   
     length 0.704599   
     axis -9.20027e-016 -90 -90   XYZ
    dof rx rz
    limits (-90.0 90.0)
           (-45.0 45.0)
  end
  begin
     id 29
     name rfingers
     direction -1 -4.48962e-011 2.88371e-027   
     length 0.568066   
     axis -1.84005e-015 -90 -90   XYZ
    dof rx
    limits (0.0 90.0)
  end
  begin
     id 30
     name rthumb
     direction -0.707107 -6.34949e-011 0.707107   
     length 0.815633   
     axis -90 -45 -2.85299e-015   XYZ
    dof rx rz
    limits (-45.0 45.0)
           (-45.0 45.0)
  end
:hierarchy
  begin
    root lhipjoint rhipjoint lowerback
    lhipjoint lfemur
    lfemur ltibia
    ltibia lfoot
    lfoot ltoes
    rhipjoint rfemur
    rfemur rtibia
    rtibia rfoot
    rfoot rtoes
    lowerback upperback
    upperback thorax
    thorax lowerneck lclavicle rclavicle
    lowerneck upperneck
    upperneck head
    lclavicle lhumerus
    lhumerus lradius
    lradius lwrist
    lwrist lhand lthumb
    lhand lfingers
    rclavicle rhumerus
    rhumerus rradius
    rradius rwrist
    rwrist rhand rthumb
    rhand rfingers
  end

#!OML:ASF E:\id_vita\Project 1\Capture day 1\Session 1\Male1.ASF
:FULLY-SPECIFIED
:DEGREES
341
root 27.2094 10.1394 0.80887 142.355 80.072 128.265
lowerback 47.2041 -3.96253 -0.58538
upperback 11.9358 -2.16241 4.32968
thorax -7.88903 -0.290828 5.79968
lowerneck -18.7654 0.122464 0.0968458
upperneck 7.46499 -0.595392 6.77915
head 5.31344 0.269996 2.08263
rclavicle -4.21423e-014 -4.37326e-014
rhumerus -180.403 -165.385 -263.702
rradius 46.3846
rwrist -382.182
rhand -45.9364 73.6453
rfingers 7.12502
rthumb -18.6845 -315.477
lclavicle -4.21423e-014 -4.37326e-014
lhumerus 3.11323 -1.64171 56.9692
lradius 55.4048
lwrist -28.5757
lhand -30.3767 43.3438
lfingers 7.12502
lthumb -3.68121 73.2917
rfemur -84.1083 -2.57243 14.0014
rtibia 119.379
rfoot -39.822 -20.3809
rtoes -25.2388
lfemur -76.3143 18.0916 -25.5873
ltibia 128.112
lfoot -31.5099 -24.5572
ltoes 39.3552
342
root 27.2495 10.1733 0.8288 144.947 80.8697 131.119
lowerback 49.4817 -3.91623 0.512837
upperback 10.6169 -1.40887 5.01038
thorax -8.57259 0.02816 5.6726
lowerneck -19.1885 0.136704 0.391386
upperneck 7.69035 -0.595806 6.09515
head 5.445 0.23541 1.82203
rclavicle 9.22361e-014 1.82882e-014
rhumerus -180.221 -163.579 -263.128
rradius 45.9994
rwrist -383.182
rhand -46.0663 75.2469
rfingers 7.12502
rthumb -18.8094 -313.864
lclavicle 9.22361e-014 1.82882e-014
lhumerus 2.24442 -0.779975 56.5782
lradius 54.9036
lwrist -28.5357
lhand -29.5656 43.4328
lfingers 7.12502
lthumb -2.89792 73.3928
rfemur -83.507 -1.00716 15.0005
rtibia 119.028
rfoot -39.4891 -20.0602
rtoes -23.9733
lfemur -75.5087 20.841 -25.2223
ltibia 127.489
lfoot -31.8384 -23.3069
ltoes 34.2704
343
root 27.3462 10.2323 0.824191 141.857 80.0874 127.707
lowerback 48.9621 -3.98339 0.639552
upperback 10.6369 -1.41561 5.26918
thorax -8.47568 0.0157995 5.88877
lowerneck -19.7136 0.125626 0.515482
upperneck 8.05696 -0.60215 5.45866
head 5.63883 0.197909 1.60409
rclavicle 8.11041e-014 -7.95139e-016
rhumerus -180.061 -161.765 -262.517
rradius 45.7838
rwrist -384.539
rhand -47.4719 75.1497
rfingers 7.12502
rthumb -20.1609 -313.824
lclavicle 8.11041e-014 -7.95139e-016
lhumerus 1.38473 0.0869314 56.0581
lradius 54.3322
lwrist -28.0463
lhand -28.7481 43.5393
lfingers 7.12502
lthumb -2.10846 73.5086
rfemur -83.0531 -1.36498 13.9342
rtibia 118.812
rfoot -40.7533 -18.911
rtoes -19.164
lfemur -74.5792 20.7478 -26.357
ltibia 126.687
lfoot -31.5092 -22.7556
ltoes 33.6274
344
root 27.5043 10.3326 0.784181 138.042 78.221 122.854
lowerback 45.4348 -4.38727 1.07943
upperback 11.8106 -1.9959 4.7257
thorax -7.6393 -0.224525 5.27352
lowerneck -19.8519 0.0211558 1.38071
upperneck 8.35551 -0.936922 5.06753
head 5.75918 0.0405363 1.30784
rclavicle -8.26944e-014 3.18055e-014
rhumerus -180.027 -158.985 -262.414
rradius 45.5301
rwrist -386.211
rhand -46.8557 77.3177
rfingers 7.12502
rthumb -19.5685 -311.718
lclavicle -8.26944e-014 3.18055e-014
lhumerus 1.0098 0.00173972 54.8751
lradius 53.6072
lwrist -27.0955
lhand -28.5045 43.7604
lfingers 7.12502
lthumb -1.87314 73.7319
rfemur -82.5416 -3.15557 11.5012
rtibia 118.597
rfoot -43.4103 -17.3756
rtoes -7.70031
lfemur -73.8241 18.2374 -28.5552
ltibia 125.646
lfoot -29.9674 -22.1622
ltoes 36.9561
345
root 27.5804 10.4227 0.780674 137.072 77.1204 121.501
lowerback 44.9338 -4.84509 1.68155
upperback 11.5809 -2.37782 4.4262
thorax -7.75513 -0.390438 4.79643
lowerneck -19.7028 0.13459 1.99423
upperneck 8.64212 -0.923911 4.84158
head 5.82349 0.0542887 1.13933
rclavicle -7.95139e-015 1.35969e-013
rhumerus -180.141 -157.17 -262.433
rradius 45.2411
rwrist -387.736
rhand -46.3984 78.4949
rfingers 7.12502
rthumb -19.1289 -310.584
lclavicle -7.95139e-015 1.35969e-013
lhumerus 0.0490667 0.681275 53.4083
lradius 52.9054
lwrist -25.9392
lhand -28.355 43.9211
lfingers 7.12502
lthumb -1.72876 73.8938
rfemur -82.0482 -3.9399 10.4278
rtibia 118.198
rfoot -41.2311 -19.5405
rtoes -24.4694
lfemur -73.9047 17.2819 -29.5751
ltibia 124.87
lfoot -28.293 -22.3927
ltoes 36.4296
346
root 27.6646 10.5236 0.781593 136.769 76.5151 120.885
lowerback 44.5126 -4.65812 1.56792
upperback 11.504 -2.1236 5.23123
thorax -7.73702 -0.302007 5.61275
lowerneck -20.1148 0.168428 1.97398
upperneck 9.21198 -0.791759 3.82587
head 6.06008 0.0423303 0.83372
rclavicle 4.92986e-014 6.75868e-014
rhumerus -180.037 -156.14 -261.055
rradius 45.2354
rwrist -388.91
rhand -47.6297 77.1554
rfingers 7.12502
rthumb -20.3125 -311.802
lclavicle 4.92986e-014 6.75868e-014
lhumerus -1.00046 2.28968 53.4297
lradius 52.0867
lwrist -24.8301
lhand -28.0539 43.9429
lfingers 7.12502
lthumb -1.43797 73.9178
rfemur -81.2774 -3.94105 9.71263
rtibia 117.637
rfoot -43.3621 -17.5149
rtoes -6.89774
lfemur -73.8209 17.0119 -30.2538
ltibia 124.076
lfoot -27.3474 -21.6659
ltoes 33.3967
347
root 27.7738 10.6505 0.786663 134.605 76.5674 118.892
lowerback 44.5608 -4.4541 1.81998
upperback 11.4983 -1.73963 5.4587
thorax -7.79122 -0.129154 5.57002
lowerneck -20.3198 0.19288 2.14223
upperneck 9.72843 -0.764948 3.30255
head 6.25444 0.025239 0.643013
rclavicle 7.95139e-015 -6.67916e-014
rhumerus -180.118 -154.542 -260.401
rradius 45.1111
rwrist -390.028
rhand -48.9798 76.8963
rfingers 7.12502
rthumb -21.6097 -311.918
lclavicle 7.95139e-015 -6.67916e-014
lhumerus -1.85263 3.4717 52.478
lradius 51.3048
lwrist -23.4114
lhand -27.4212 44.1546
lfingers 7.12502
lthumb -0.826883 74.1328
rfemur -79.611 -2.82287 9.23565
rtibia 116.753
rfoot -42.4141 -19.915
rtoes -16.2974
lfemur -73.0525 18.0131 -29.8816
ltibia 123.304
lfoot -24.1725 -23.9853
ltoes 37.1809
348
root 27.8523 10.7454 0.771823 133.078 75.6653 116.752
lowerback 43.912 -4.48006 1.83591
upperback 11.2968 -1.82001 5.63383
thorax -7.83608 -0.183772 5.77638
lowerneck -20.4146 0.298208 2.1581
upperneck 10.1402 -0.558953 2.66303
head 6.39687 0.0730631 0.457291
rclavicle -1.11319e-014 -1.27222e-014
rhumerus -180.029 -153.368 -259.562
rradius 44.9927
rwrist -391.145
rhand -48.309 77.3023
rfingers 7.12502
rthumb -20.9653 -311.585
lclavicle -1.11319e-014 -1.27222e-014
lhumerus -2.8883 5.04573 51.6208
lradius 50.5208
lwrist -22.0612
lhand -26.5916 44.5151
lfingers 7.12502
lthumb -0.0256682 74.4949
rfemur -79.2298 -3.29882 8.00218
rtibia 116.096
rfoot -41.8134 -21.0282
rtoes -20.5688
lfemur -73.1469 17.0479 -30.8361
ltibia 122.507
lfoot -21.5566 -24.2731
ltoes 38.9659
349
root 27.9368 10.8529 0.766549 131.185 75.1814 114.447
lowerback 43.5771 -4.32901 1.46517
upperback 11.1354 -1.78881 6.04143
thorax -7.92388 -0.193047 6.39678
lowerneck -20.3425 0.480937 1.76438
upperneck 10.4502 -0.125419 2.03543
head 6.48106 0.209311 0.365294
rclavicle -4.77083e-014 7.4743e-014
rhumerus -179.827 -153.129 -258.472
rradius 44.7922
rwrist -392.107
rhand -49.4894 75.277
rfingers 7.12502
rthumb -22.099 -313.48
lclavicle -4.77083e-014 7.4743e-014
lhumerus -4.42881 7.12767 50.8122
lradius 49.7401
lwrist -20.5587
lhand -25.8299 44.9393
lfingers 7.12502
lthumb 0.710078 74.9179
rfemur -78.5699 -2.93229 7.02844
rtibia 115.301
rfoot -41.6866 -21.4777
rtoes -21.3416
lfemur -73.0042 16.8078 -31.2482
ltibia 121.689
lfoot -18.7733 -25.2336
ltoes 41.6732
350
root 28.0331 10.9771 0.759096 129.9 74.9812 112.959
lowerback 43.3301 -4.23446 1.7056
upperback 11.0658 -1.57142 6.28377
thorax -7.95817 -0.102135 6.44199
lowerneck -20.5083 0.459307 1.56275
upperneck 10.7126 -0.0549974 1.65417
head 6.59148 0.201664 0.282598
rclavicle 2.22639e-014 -8.74653e-015
rhumerus -179.88 -152.57 -257.478
rradius 44.9426
rwrist -392.739
rhand -49.0786 76.1152
rfingers 7.12502
rthumb -21.7045 -312.688
lclavicle 2.22639e-014 -8.74653e-015
lhumerus -5.27657 8.65866 49.6768
lradius 48.704
lwrist -18.8096
lhand -25.0219 45.4135
lfingers 7.12502
lthumb 1.4904 75.3881
rfemur -77.4431 -2.16542 6.3293
rtibia 114.332
rfoot -41.8731 -22.4862
rtoes -22.8369
lfemur -72.6374 16.7955 -31.1891
ltibia 120.871
lfoot -15.6275 -26.1465
ltoes 44.1933
351
root 28.1289 11.0912 0.759648 129.009 74.8298 111.764
lowerback 43.0592 -4.09516 1.94715
upperback 10.9383 -1.31093 6.52197
thorax -8.05449 0.00617261 6.4653
lowerneck -20.7088 0.408056 1.41049
upperneck 11.0648 -0.0465336 1.33619
head 6.73772 0.172106 0.205455
rclavicle -3.49861e-014 -9.85972e-014
rhumerus -180.142 -152.184 -256.532
rradius 45.4272
rwrist -393.319
rhand -49.3681 76.5354
rfingers 7.12502
rthumb -21.9825 -312.236
lclavicle -3.49861e-014 -9.85972e-014
lhumerus -6.07932 10.0716 48.3402
lradius 47.6121
lwrist -17.1245
lhand -24.2848 45.8147
lfingers 7.12502
lthumb 2.20228 75.7831
rfemur -76.5223 -1.43047 5.76116
rtibia 113.419
rfoot -41.5123 -22.4608
rtoes -21.5751
lfemur -72.4672 16.8197 -31.1338
ltibia 120.221
lfoot -13.3175 -26.3515
ltoes 44.6245
352
root 28.2499 11.2244 0.739201 125.162 74.8527 107.947
lowerback 43.0826 -3.79876 1.93798
upperback 10.9994 -0.980246 6.48573
thorax -8.02419 0.153243 6.29076
lowerneck -20.8145 0.411912 1.37043
upperneck 11.3261 0.0356837 0.870001
head 6.83943 0.166913 0.0694989
rclavicle -1.27222e-014 7.63333e-014
rhumerus -180.169 -151.708 -255.837
rradius 45.8195
rwrist -393.537
rhand -49.5996 77.6338
rfingers 7.12502
rthumb -22.2048 -311.111
lclavicle -1.27222e-014 7.63333e-014
lhumerus -6.94695 11.5294 46.8064
lradius 46.5745
lwrist -15.5136
lhand -23.6358 46.207
lfingers 7.12502
lthumb 2.82909 76.168
rfemur -75.0849 -0.159893 4.85836
rtibia 112.325
rfoot -41.8891 -21.9659
rtoes -19.2659
lfemur -71.406 17.5104 -31.3276
ltibia 119.514
lfoot -12.0904 -26.4858
ltoes 43.7455
